<svg version="1.1" id="Layer_1" xmlns="http://www.w3.org/2000/svg" xmlns:xlink="http://www.w3.org/1999/xlink" x="0px" y="0px"
	 width="100%" viewBox="0 0 234 100" enable-background="new 0 0 234 100" xml:space="preserve">
<path fill="#000000" opacity="1.000000" stroke="none" 
	d="
M157.000000,101.000000 
	C104.666679,101.000000 52.833363,101.000000 1.000035,101.000000 
	C1.000023,67.666695 1.000023,34.333385 1.000012,1.000057 
	C78.999947,1.000038 156.999893,1.000038 234.999878,1.000019 
	C234.999924,34.333275 234.999924,67.666550 234.999969,100.999908 
	C209.166672,101.000000 183.333328,101.000000 157.000000,101.000000 
M68.630333,55.491837 
	C62.113033,59.492760 55.595734,63.493687 48.855568,67.631424 
	C49.782280,69.490196 50.677387,71.285583 51.842514,73.622566 
	C61.449261,68.139412 70.813858,62.794468 80.277527,57.392975 
	C78.988174,55.014515 77.925056,53.053379 76.975220,51.301212 
	C75.470840,51.981251 74.192024,52.559322 72.303246,52.507912 
	C71.855537,50.305756 71.407822,48.103596 70.893867,45.575600 
	C60.094730,50.069118 49.963043,54.284916 39.522797,58.629101 
	C40.543816,61.117260 41.370293,63.131336 41.972988,64.600067 
	C50.973625,61.242558 59.490456,58.065525 68.630333,55.491837 
M47.009533,41.739693 
	C47.563469,43.838787 48.117405,45.937885 48.804821,48.542797 
	C59.827179,43.929676 70.019890,39.663784 80.581833,35.243359 
	C79.291679,32.723251 78.308342,30.802444 77.408531,29.044809 
	C68.020630,32.838295 59.009556,36.479511 49.370701,39.521175 
	C56.352657,35.151474 63.334614,30.781771 70.633278,26.213858 
	C69.429749,24.056337 68.525467,22.435257 67.490112,20.579210 
	C59.721573,25.050224 52.415577,29.357595 45.009018,33.484493 
	C39.329067,36.649334 39.269352,36.550056 42.598785,42.068512 
	C42.763584,42.341667 43.071339,42.528572 43.150990,42.603561 
	C44.506275,42.024139 45.784035,41.477863 47.009533,41.739693 
M110.522850,58.927128 
	C114.371872,52.567940 112.465111,48.243023 104.917961,45.323563 
	C103.389923,44.732468 102.369736,42.828491 101.115417,41.529785 
	C103.136856,41.354534 105.185730,40.909443 107.168846,41.111095 
	C108.257607,41.221806 109.235512,42.422592 110.333717,43.180389 
	C111.423424,42.013477 112.300507,41.074253 113.122139,40.194412 
	C109.386810,34.568081 102.283211,34.330044 98.241714,37.521023 
	C96.656357,38.772739 94.946594,41.562248 95.299393,43.226093 
	C96.072212,46.870831 98.737854,49.367527 102.730858,50.466339 
	C104.672707,51.000706 107.900200,53.658607 107.717316,54.057087 
	C106.066025,57.654957 103.194504,55.742634 100.626877,55.017941 
	C100.152870,54.884159 99.440369,54.977657 99.213806,54.680088 
	C96.842476,51.565498 95.583710,53.746784 94.172661,55.581799 
	C99.824661,61.399590 103.678154,62.240967 110.522850,58.927128 
M144.864990,59.998646 
	C145.575974,59.402893 146.885071,58.825562 146.904068,58.208492 
	C147.067520,52.902847 146.997955,47.590023 146.997955,42.686504 
	C143.971207,42.178783 140.301117,40.614388 137.129623,41.313107 
	C134.280838,41.940727 130.732880,44.594704 129.773438,47.195835 
	C128.727692,50.030918 129.474762,54.268616 130.955963,57.102703 
	C132.720490,60.478924 136.186691,62.388180 140.474457,59.949108 
	C141.356796,59.447201 142.813660,59.955273 144.864990,59.998646 
M170.915543,59.443779 
	C171.112671,57.387707 171.309799,55.331638 171.549347,52.833183 
	C175.489990,56.254139 177.096558,61.503609 183.552338,59.307068 
	C180.772766,55.894482 178.340088,52.907787 175.707031,49.675079 
	C178.440598,47.213490 181.067200,44.848209 183.670593,42.503834 
	C177.433670,39.884029 174.972839,45.254723 170.570175,48.347927 
	C170.570175,43.466328 170.570175,39.404694 170.570175,35.186020 
	C169.168411,35.186020 167.763000,35.186020 166.176620,35.186020 
	C166.176620,43.458996 166.176620,51.544373 166.176620,59.954929 
	C167.627274,59.954929 168.905807,59.954929 170.915543,59.443779 
M186.040039,43.675926 
	C184.050812,47.772915 184.459305,50.766960 189.469971,52.188953 
	C191.414185,52.740711 193.134613,54.081028 194.956985,55.062122 
	C194.834625,55.376938 194.712265,55.691757 194.589905,56.006573 
	C191.400040,56.006573 188.210159,56.006573 184.084686,56.006573 
	C187.650391,61.050579 191.451218,61.376247 195.443787,59.888165 
	C196.859940,59.360340 198.577362,57.776821 198.866928,56.403244 
	C200.359055,49.324974 193.487701,49.772007 189.794250,47.344452 
	C189.858932,46.866371 189.923630,46.388294 189.988327,45.910213 
	C192.975372,45.910213 195.962433,45.910213 199.926575,45.910213 
	C195.399261,39.867607 191.033493,41.058159 186.040039,43.675926 
M160.898148,41.631794 
	C157.698639,41.889805 154.499115,42.147816 151.184418,42.415119 
	C151.184418,48.150696 151.184418,53.903500 151.184418,59.826550 
	C152.784927,59.826550 154.198608,59.826550 155.937439,59.826550 
	C156.298248,57.188862 156.833191,54.672665 156.937469,52.138752 
	C157.050537,49.391022 156.669586,46.840256 160.827133,46.784760 
	C161.884018,46.770653 162.908295,44.312569 163.947556,42.977444 
	C163.118515,42.343262 162.289474,41.709076 160.898148,41.631794 
M123.003166,54.478474 
	C123.835236,51.262371 120.336472,45.850029 127.443626,45.683517 
	C127.650940,45.678661 127.807014,43.486588 128.001740,42.218201 
	C126.042877,42.050911 124.618622,41.929279 123.962822,41.873272 
	C122.946945,40.201538 122.284248,39.111008 121.621559,38.020473 
	C120.737587,38.958458 119.841942,39.885849 118.976036,40.840221 
	C118.676033,41.170879 118.514450,41.648380 118.177856,41.920605 
	C117.155579,42.747368 116.078682,43.506596 115.023056,44.292122 
	C116.262070,45.178005 117.501083,46.063885 119.107178,47.212223 
	C119.107178,51.020180 119.107178,55.297352 119.107178,59.963326 
	C120.517174,59.878414 121.683144,59.808201 123.002846,59.728725 
	C123.002846,58.041473 123.002846,56.729111 123.003166,54.478474 
z"/>
<path fill="#F6FCFE" opacity="1.000000" stroke="none" 
	d="
M110.107101,58.979507 
	C103.678154,62.240967 99.824661,61.399590 94.172661,55.581799 
	C95.583710,53.746784 96.842476,51.565498 99.213806,54.680088 
	C99.440369,54.977657 100.152870,54.884159 100.626877,55.017941 
	C103.194504,55.742634 106.066025,57.654957 107.717316,54.057087 
	C107.900200,53.658607 104.672707,51.000706 102.730858,50.466339 
	C98.737854,49.367527 96.072212,46.870831 95.299393,43.226093 
	C94.946594,41.562248 96.656357,38.772739 98.241714,37.521023 
	C102.283211,34.330044 109.386810,34.568081 113.122139,40.194412 
	C112.300507,41.074253 111.423424,42.013477 110.333717,43.180389 
	C109.235512,42.422592 108.257607,41.221806 107.168846,41.111095 
	C105.185730,40.909443 103.136856,41.354534 101.115417,41.529781 
	C102.369736,42.828491 103.389923,44.732468 104.917961,45.323563 
	C112.465111,48.243023 114.371872,52.567940 110.107101,58.979507 
z"/>
<path fill="#F8FCFE" opacity="1.000000" stroke="none" 
	d="
M144.435364,59.998234 
	C142.813660,59.955273 141.356796,59.447201 140.474457,59.949108 
	C136.186691,62.388180 132.720490,60.478924 130.955963,57.102703 
	C129.474762,54.268616 128.727692,50.030918 129.773438,47.195835 
	C130.732880,44.594704 134.280838,41.940727 137.129623,41.313107 
	C140.301117,40.614388 143.971207,42.178783 146.997955,42.686504 
	C146.997955,47.590023 147.067520,52.902847 146.904068,58.208492 
	C146.885071,58.825562 145.575974,59.402893 144.435364,59.998234 
M135.472458,54.988873 
	C137.315689,54.816654 140.410217,55.174820 140.752838,54.366539 
	C141.574707,52.427536 141.523560,49.826859 140.954407,47.729366 
	C140.717422,46.856033 137.342682,45.773968 136.983856,46.182510 
	C135.631516,47.722290 134.771118,49.779530 134.076965,51.765503 
	C133.835297,52.456913 134.609329,53.503326 135.472458,54.988873 
z"/>
<path fill="#EAF2F6" opacity="1.000000" stroke="none" 
	d="
M49.998486,40.120728 
	C59.009556,36.479511 68.020630,32.838295 77.408531,29.044809 
	C78.308342,30.802444 79.291679,32.723251 80.581833,35.243359 
	C70.019890,39.663784 59.827179,43.929676 48.804821,48.542797 
	C48.117405,45.937885 47.563469,43.838787 47.001263,41.369034 
	C46.992992,40.998375 46.919754,41.060257 47.292278,41.035202 
	C48.471371,40.667343 49.277943,40.324539 50.054138,40.010994 
	C50.023766,40.040253 49.998486,40.120728 49.998486,40.120728 
z"/>
<path fill="#F8FDFD" opacity="1.000000" stroke="none" 
	d="
M170.549927,59.699356 
	C168.905807,59.954929 167.627274,59.954929 166.176620,59.954929 
	C166.176620,51.544373 166.176620,43.458996 166.176620,35.186020 
	C167.763000,35.186020 169.168411,35.186020 170.570175,35.186020 
	C170.570175,39.404694 170.570175,43.466328 170.570175,48.347927 
	C174.972839,45.254723 177.433670,39.884029 183.670593,42.503834 
	C181.067200,44.848209 178.440598,47.213490 175.707031,49.675079 
	C178.340088,52.907787 180.772766,55.894482 183.552338,59.307068 
	C177.096558,61.503609 175.489990,56.254139 171.549347,52.833183 
	C171.309799,55.331638 171.112671,57.387707 170.549927,59.699356 
z"/>
<path fill="#EBF3F7" opacity="1.000000" stroke="none" 
	d="
M68.007286,54.888496 
	C59.490456,58.065525 50.973625,61.242558 41.972988,64.600067 
	C41.370293,63.131336 40.543816,61.117260 39.522797,58.629101 
	C49.963043,54.284916 60.094730,50.069118 70.893867,45.575600 
	C71.407822,48.103596 71.855537,50.305756 72.649597,52.781483 
	C72.995956,53.055054 73.086578,52.981472 72.803665,52.667099 
	C70.984772,53.240387 69.448792,54.128040 67.947968,54.992462 
	C67.983116,54.969227 68.007286,54.888496 68.007286,54.888496 
z"/>
<path fill="#EAF3F7" opacity="1.000000" stroke="none" 
	d="
M72.954590,53.096226 
	C74.192024,52.559322 75.470840,51.981251 76.975220,51.301212 
	C77.925056,53.053379 78.988174,55.014515 80.277527,57.392975 
	C70.813858,62.794468 61.449261,68.139412 51.842514,73.622566 
	C50.677387,71.285583 49.782280,69.490196 48.855568,67.631424 
	C55.595734,63.493687 62.113033,59.492760 68.318810,55.190166 
	C68.007286,54.888496 67.983116,54.969227 68.233154,55.304279 
	C70.017654,54.753376 71.552116,53.867424 73.086578,52.981468 
	C73.086578,52.981472 72.995956,53.055054 72.954590,53.096226 
z"/>
<path fill="#EAF2F7" opacity="1.000000" stroke="none" 
	d="
M47.027393,40.964981 
	C45.784035,41.477863 44.506275,42.024139 43.150990,42.603561 
	C43.071339,42.528572 42.763584,42.341667 42.598785,42.068512 
	C39.269352,36.550056 39.329067,36.649334 45.009018,33.484493 
	C52.415577,29.357595 59.721573,25.050224 67.490112,20.579210 
	C68.525467,22.435257 69.429749,24.056337 70.633278,26.213858 
	C63.334614,30.781771 56.352657,35.151474 49.684593,39.820953 
	C49.998486,40.120728 50.023766,40.040253 49.767097,39.698029 
	C48.646873,39.923958 47.783314,40.492107 46.919754,41.060257 
	C46.919754,41.060257 46.992992,40.998375 47.027393,40.964981 
z"/>
<path fill="#F5FCFE" opacity="1.000000" stroke="none" 
	d="
M186.299820,43.362923 
	C191.033493,41.058159 195.399261,39.867607 199.926575,45.910213 
	C195.962433,45.910213 192.975372,45.910213 189.988327,45.910213 
	C189.923630,46.388294 189.858932,46.866371 189.794250,47.344452 
	C193.487701,49.772007 200.359055,49.324974 198.866928,56.403244 
	C198.577362,57.776821 196.859940,59.360340 195.443787,59.888165 
	C191.451218,61.376247 187.650391,61.050579 184.084686,56.006573 
	C188.210159,56.006573 191.400040,56.006573 194.589905,56.006573 
	C194.712265,55.691757 194.834625,55.376938 194.956985,55.062122 
	C193.134613,54.081028 191.414185,52.740711 189.469971,52.188953 
	C184.459305,50.766960 184.050812,47.772915 186.299820,43.362923 
z"/>
<path fill="#FAFDFD" opacity="1.000000" stroke="none" 
	d="
M161.179291,41.353340 
	C162.289474,41.709076 163.118515,42.343262 163.947556,42.977448 
	C162.908295,44.312569 161.884018,46.770653 160.827133,46.784760 
	C156.669586,46.840256 157.050537,49.391022 156.937469,52.138752 
	C156.833191,54.672665 156.298248,57.188862 155.937439,59.826550 
	C154.198608,59.826550 152.784927,59.826550 151.184418,59.826550 
	C151.184418,53.903500 151.184418,48.150696 151.184418,42.415119 
	C154.499115,42.147816 157.698639,41.889805 161.179291,41.353340 
z"/>
<path fill="#FAFEFF" opacity="1.000000" stroke="none" 
	d="
M123.003006,54.947609 
	C123.002846,56.729111 123.002846,58.041473 123.002846,59.728725 
	C121.683144,59.808201 120.517174,59.878414 119.107178,59.963326 
	C119.107178,55.297352 119.107178,51.020180 119.107178,47.212223 
	C117.501083,46.063885 116.262070,45.178005 115.023056,44.292122 
	C116.078682,43.506596 117.155579,42.747368 118.177856,41.920605 
	C118.514450,41.648380 118.676033,41.170879 118.976036,40.840221 
	C119.841942,39.885849 120.737587,38.958458 121.621552,38.020477 
	C122.284248,39.111008 122.946945,40.201538 123.962822,41.873272 
	C124.618622,41.929279 126.042877,42.050911 128.001740,42.218201 
	C127.807014,43.486588 127.650940,45.678661 127.443626,45.683517 
	C120.336472,45.850029 123.835236,51.262371 123.003006,54.947609 
z"/>
<path fill="#000000" opacity="1.000000" stroke="none" 
	d="
M135.195969,54.688240 
	C134.609329,53.503326 133.835297,52.456913 134.076965,51.765503 
	C134.771118,49.779530 135.631516,47.722290 136.983856,46.182510 
	C137.342682,45.773968 140.717422,46.856033 140.954407,47.729366 
	C141.523560,49.826859 141.574707,52.427536 140.752838,54.366539 
	C140.410217,55.174820 137.315689,54.816654 135.195969,54.688240 
z"/>
<path fill="#000000" opacity="1.000000" stroke="none" 
	d="
M47.292278,41.035202 
	C47.783314,40.492107 48.646873,39.923958 49.797474,39.668774 
	C49.277943,40.324539 48.471371,40.667343 47.292278,41.035202 
z"/>
<path fill="#000000" opacity="1.000000" stroke="none" 
	d="
M72.803665,52.667099 
	C71.552116,53.867424 70.017654,54.753376 68.198006,55.327515 
	C69.448792,54.128040 70.984772,53.240387 72.803665,52.667099 
z"/>
</svg>